G04 Layer_Color=16711935*
%FSLAX25Y25*%
%MOIN*%
G70*
G01*
G75*
%ADD45C,0.00400*%
G36*
X463354Y385803D02*
X459610D01*
Y387769D01*
X463354D01*
Y385803D01*
D02*
G37*
G36*
X453354D02*
X449610D01*
Y387769D01*
X453354D01*
Y385803D01*
D02*
G37*
G36*
X493354Y385649D02*
X489610D01*
Y387615D01*
X493354D01*
Y385649D01*
D02*
G37*
G36*
X473354Y385803D02*
X469610D01*
Y387769D01*
X473354D01*
Y385803D01*
D02*
G37*
G36*
X513354D02*
X509610D01*
Y387769D01*
X513354D01*
Y385803D01*
D02*
G37*
G36*
X503354D02*
X499610D01*
Y387769D01*
X503354D01*
Y385803D01*
D02*
G37*
G36*
X483354D02*
X479610D01*
Y387769D01*
X483354D01*
Y385803D01*
D02*
G37*
G36*
X463354Y381192D02*
X459610D01*
Y383169D01*
X463354D01*
Y381192D01*
D02*
G37*
G36*
X453354D02*
X449610D01*
Y383169D01*
X453354D01*
Y381192D01*
D02*
G37*
G36*
X493354Y381038D02*
X489610D01*
Y383015D01*
X493354D01*
Y381038D01*
D02*
G37*
G36*
X473354Y381192D02*
X469610D01*
Y383169D01*
X473354D01*
Y381192D01*
D02*
G37*
G36*
X513354D02*
X509610D01*
Y383169D01*
X513354D01*
Y381192D01*
D02*
G37*
G36*
X503354D02*
X499610D01*
Y383169D01*
X503354D01*
Y381192D01*
D02*
G37*
G36*
X483354D02*
X479610D01*
Y383169D01*
X483354D01*
Y381192D01*
D02*
G37*
G36*
X474197Y439610D02*
X472231D01*
Y443354D01*
X474197D01*
Y439610D01*
D02*
G37*
G36*
X453354Y437192D02*
X449610D01*
Y439169D01*
X453354D01*
Y437192D01*
D02*
G37*
G36*
X510355Y434804D02*
X506610D01*
Y436769D01*
X510355D01*
Y434804D01*
D02*
G37*
G36*
X478808Y439610D02*
X476831D01*
Y443354D01*
X478808D01*
Y439610D01*
D02*
G37*
G36*
X453354Y441803D02*
X449610D01*
Y443769D01*
X453354D01*
Y441803D01*
D02*
G37*
G36*
X496669Y439645D02*
X494692D01*
Y443390D01*
X496669D01*
Y439645D01*
D02*
G37*
G36*
X501269Y439645D02*
X499304D01*
Y443390D01*
X501269D01*
Y439645D01*
D02*
G37*
G36*
X487854Y404692D02*
X484110D01*
Y406669D01*
X487854D01*
Y404692D01*
D02*
G37*
G36*
X524269Y391146D02*
X522303D01*
Y394890D01*
X524269D01*
Y391146D01*
D02*
G37*
G36*
X519669Y391146D02*
X517692D01*
Y394890D01*
X519669D01*
Y391146D01*
D02*
G37*
G36*
X487855Y409304D02*
X484110D01*
Y411269D01*
X487855D01*
Y409304D01*
D02*
G37*
G36*
X510355Y430192D02*
X506610D01*
Y432169D01*
X510355D01*
Y430192D01*
D02*
G37*
G36*
X496669Y420146D02*
X494692D01*
Y423890D01*
X496669D01*
Y420146D01*
D02*
G37*
G36*
X501269Y420145D02*
X499304D01*
Y423890D01*
X501269D01*
Y420145D01*
D02*
G37*
D45*
X484299Y406598D02*
Y409402D01*
X487650Y406598D02*
Y409402D01*
X496598Y423701D02*
X499402D01*
X496598Y420350D02*
X499402D01*
X496598Y443201D02*
X499402D01*
X496598Y439850D02*
X499402D01*
X519598Y394701D02*
X522402D01*
X519598Y391350D02*
X522402D01*
X474098Y439799D02*
X476902D01*
X474098Y443150D02*
X476902D01*
X506799Y432098D02*
Y434902D01*
X510150Y432098D02*
Y434902D01*
X509799Y383098D02*
Y385902D01*
X513150Y383098D02*
Y385902D01*
X499799Y383098D02*
Y385902D01*
X503150Y383098D02*
Y385902D01*
X489799Y382945D02*
Y385748D01*
X493150Y382945D02*
Y385748D01*
X479799Y383098D02*
Y385902D01*
X483150Y383098D02*
Y385902D01*
X469799Y383098D02*
Y385902D01*
X473150Y383098D02*
Y385902D01*
X459799Y383098D02*
Y385902D01*
X463150Y383098D02*
Y385902D01*
X449799Y383098D02*
Y385902D01*
X453150Y383098D02*
Y385902D01*
X449799Y439098D02*
Y441902D01*
X453150Y439098D02*
Y441902D01*
M02*
