G04 Layer_Color=8388736*
%FSLAX25Y25*%
%MOIN*%
G70*
G01*
G75*
%ADD31R,0.04737X0.05131*%
%ADD32R,0.13202X0.19619*%
%ADD33R,0.05131X0.04737*%
%ADD34R,0.07493X0.04737*%
%ADD35R,0.07099X0.04737*%
%ADD36R,0.10642X0.12611*%
%ADD37R,0.05564X0.07847*%
%ADD38R,0.03950X0.03950*%
%ADD39R,0.06600X0.02200*%
%ADD40C,0.16548*%
%ADD41R,0.08674X0.07690*%
%ADD42C,0.03950*%
%ADD43C,0.06706*%
%ADD44R,0.06706X0.06706*%
D31*
X486000Y404654D02*
D03*
Y411346D02*
D03*
X508500Y430154D02*
D03*
Y436846D02*
D03*
X511500Y381154D02*
D03*
Y387846D02*
D03*
X501500Y381154D02*
D03*
Y387846D02*
D03*
X491500Y381000D02*
D03*
Y387693D02*
D03*
X481500Y381154D02*
D03*
Y387846D02*
D03*
X471500Y381154D02*
D03*
Y387846D02*
D03*
X461500Y381154D02*
D03*
Y387846D02*
D03*
X451500Y381154D02*
D03*
Y387846D02*
D03*
Y437154D02*
D03*
Y443846D02*
D03*
D32*
X651205Y417000D02*
D03*
X529000D02*
D03*
D33*
X494654Y422000D02*
D03*
X501346D02*
D03*
X494654Y441500D02*
D03*
X501346D02*
D03*
X517654Y393000D02*
D03*
X524346D02*
D03*
X478846Y441500D02*
D03*
X472154D02*
D03*
D34*
X493598Y414980D02*
D03*
Y400020D02*
D03*
X518402Y414980D02*
D03*
Y400020D02*
D03*
D35*
X486500Y426764D02*
D03*
Y437000D02*
D03*
D36*
X461894Y431882D02*
D03*
D37*
X516500Y438657D02*
D03*
Y428343D02*
D03*
D38*
X506500Y381047D02*
D03*
Y386953D02*
D03*
X496500Y381047D02*
D03*
Y386953D02*
D03*
X486500Y381047D02*
D03*
Y386953D02*
D03*
X476500Y381047D02*
D03*
Y386953D02*
D03*
X466500Y381047D02*
D03*
Y386953D02*
D03*
X456500Y381047D02*
D03*
Y386953D02*
D03*
X446500Y381047D02*
D03*
Y386953D02*
D03*
D39*
X452500Y418700D02*
D03*
Y416100D02*
D03*
Y413600D02*
D03*
Y411000D02*
D03*
Y408400D02*
D03*
Y405900D02*
D03*
Y403300D02*
D03*
X475500D02*
D03*
Y405900D02*
D03*
Y408400D02*
D03*
Y411000D02*
D03*
Y413600D02*
D03*
Y416100D02*
D03*
Y418700D02*
D03*
D40*
X437500Y445500D02*
D03*
X648500Y388500D02*
D03*
Y445500D02*
D03*
D41*
X438937Y382693D02*
D03*
Y388598D02*
D03*
X452717Y451591D02*
D03*
X458622D02*
D03*
D42*
X479000Y441500D02*
D03*
X516500Y428343D02*
D03*
X524346Y393000D02*
D03*
X507000Y422000D02*
D03*
X506500Y382500D02*
D03*
X496500D02*
D03*
X486500D02*
D03*
X476500D02*
D03*
X466500D02*
D03*
X456500D02*
D03*
X446500D02*
D03*
X528500Y417000D02*
D03*
X501500Y441500D02*
D03*
X451500Y437000D02*
D03*
X511500Y381000D02*
D03*
X501500D02*
D03*
X491500D02*
D03*
X481500D02*
D03*
X471500D02*
D03*
X461500D02*
D03*
X451500D02*
D03*
D43*
X474000Y450000D02*
D03*
X484000D02*
D03*
X494000D02*
D03*
X504000D02*
D03*
D44*
X514000D02*
D03*
M02*
