G04 Layer_Color=32896*
%FSLAX25Y25*%
%MOIN*%
G70*
G01*
G75*
%ADD45C,0.00400*%
%ADD46C,0.00200*%
G36*
X485512Y382622D02*
X487582D01*
Y382620D01*
X488271D01*
Y380652D01*
X487486D01*
Y381441D01*
X487189D01*
Y381736D01*
X485809D01*
Y381439D01*
X485512D01*
Y380650D01*
X484728D01*
Y382622D01*
X485512D01*
Y382622D01*
D02*
G37*
G36*
X495512D02*
X497582D01*
Y382620D01*
X498271D01*
Y380652D01*
X497486D01*
Y381441D01*
X497189D01*
Y381736D01*
X495809D01*
Y381439D01*
X495512D01*
Y380650D01*
X494728D01*
Y382622D01*
X495512D01*
Y382622D01*
D02*
G37*
G36*
X505512D02*
X507582D01*
Y382620D01*
X508271D01*
Y380652D01*
X507486D01*
Y381441D01*
X507189D01*
Y381736D01*
X505809D01*
Y381439D01*
X505512D01*
Y380650D01*
X504728D01*
Y382622D01*
X505512D01*
Y382622D01*
D02*
G37*
G36*
X475512D02*
X477582D01*
Y382620D01*
X478270D01*
Y380652D01*
X477486D01*
Y381441D01*
X477189D01*
Y381736D01*
X475809D01*
Y381439D01*
X475512D01*
Y380650D01*
X474728D01*
Y382622D01*
X475512D01*
Y382622D01*
D02*
G37*
G36*
X445512D02*
X447582D01*
Y382620D01*
X448271D01*
Y380652D01*
X447486D01*
Y381441D01*
X447189D01*
Y381736D01*
X445809D01*
Y381439D01*
X445512D01*
Y380650D01*
X444728D01*
Y382622D01*
X445512D01*
Y382622D01*
D02*
G37*
G36*
X455512D02*
X457582D01*
Y382620D01*
X458271D01*
Y380652D01*
X457486D01*
Y381441D01*
X457189D01*
Y381736D01*
X455809D01*
Y381439D01*
X455512D01*
Y380650D01*
X454728D01*
Y382622D01*
X455512D01*
Y382622D01*
D02*
G37*
G36*
X465512D02*
X467582D01*
Y382620D01*
X468270D01*
Y380652D01*
X467486D01*
Y381441D01*
X467189D01*
Y381736D01*
X465809D01*
Y381439D01*
X465512D01*
Y380650D01*
X464728D01*
Y382622D01*
X465512D01*
Y382622D01*
D02*
G37*
G36*
X485517Y386757D02*
X484925D01*
Y386264D01*
X485416D01*
Y386364D01*
X485615D01*
Y386264D01*
X487483D01*
Y387348D01*
X488274D01*
Y386168D01*
X488272D01*
Y385378D01*
X484925D01*
Y385378D01*
X484728D01*
Y385378D01*
X484728D01*
Y386264D01*
X484728D01*
Y386757D01*
X484725D01*
Y387350D01*
X485517D01*
Y386757D01*
D02*
G37*
G36*
X495517D02*
X494925D01*
Y386264D01*
X495416D01*
Y386364D01*
X495615D01*
Y386264D01*
X497483D01*
Y387348D01*
X498274D01*
Y386168D01*
X498272D01*
Y385378D01*
X494925D01*
Y385378D01*
X494728D01*
Y385378D01*
X494728D01*
Y386264D01*
X494728D01*
Y386757D01*
X494725D01*
Y387350D01*
X495517D01*
Y386757D01*
D02*
G37*
G36*
X505517D02*
X504925D01*
Y386264D01*
X505416D01*
Y386364D01*
X505615D01*
Y386264D01*
X507483D01*
Y387348D01*
X508274D01*
Y386168D01*
X508272D01*
Y385378D01*
X504925D01*
Y385378D01*
X504728D01*
Y385378D01*
X504728D01*
Y386264D01*
X504728D01*
Y386757D01*
X504725D01*
Y387350D01*
X505517D01*
Y386757D01*
D02*
G37*
G36*
X475517D02*
X474925D01*
Y386264D01*
X475416D01*
Y386364D01*
X475615D01*
Y386264D01*
X477483D01*
Y387348D01*
X478274D01*
Y386168D01*
X478272D01*
Y385378D01*
X474925D01*
Y385378D01*
X474728D01*
Y385378D01*
X474728D01*
Y386264D01*
X474728D01*
Y386757D01*
X474725D01*
Y387350D01*
X475517D01*
Y386757D01*
D02*
G37*
G36*
X445517D02*
X444925D01*
Y386264D01*
X445416D01*
Y386364D01*
X445615D01*
Y386264D01*
X447483D01*
Y387348D01*
X448274D01*
Y386168D01*
X448272D01*
Y385378D01*
X444925D01*
Y385378D01*
X444728D01*
Y385378D01*
X444728D01*
Y386264D01*
X444728D01*
Y386757D01*
X444725D01*
Y387350D01*
X445517D01*
Y386757D01*
D02*
G37*
G36*
X455517D02*
X454925D01*
Y386264D01*
X455416D01*
Y386364D01*
X455615D01*
Y386264D01*
X457483D01*
Y387348D01*
X458274D01*
Y386168D01*
X458272D01*
Y385378D01*
X454925D01*
Y385378D01*
X454728D01*
Y385378D01*
X454728D01*
Y386264D01*
X454728D01*
Y386757D01*
X454725D01*
Y387350D01*
X455517D01*
Y386757D01*
D02*
G37*
G36*
X465517D02*
X464925D01*
Y386264D01*
X465416D01*
Y386364D01*
X465615D01*
Y386264D01*
X467483D01*
Y387348D01*
X468274D01*
Y386168D01*
X468272D01*
Y385378D01*
X464925D01*
Y385378D01*
X464728D01*
Y385378D01*
X464728D01*
Y386264D01*
X464728D01*
Y386757D01*
X464725D01*
Y387350D01*
X465517D01*
Y386757D01*
D02*
G37*
D45*
X505319Y387149D02*
G03*
X507681Y387149I1181J103D01*
G01*
X505319D02*
G03*
X507681Y387149I1181J103D01*
G01*
X495319D02*
G03*
X497681Y387149I1181J103D01*
G01*
X495319D02*
G03*
X497681Y387149I1181J103D01*
G01*
X485319D02*
G03*
X487681Y387149I1181J103D01*
G01*
X485319D02*
G03*
X487681Y387149I1181J103D01*
G01*
X475319D02*
G03*
X477681Y387149I1181J103D01*
G01*
X475319D02*
G03*
X477681Y387149I1181J103D01*
G01*
X465319D02*
G03*
X467681Y387149I1181J103D01*
G01*
X465319D02*
G03*
X467681Y387149I1181J103D01*
G01*
X455319D02*
G03*
X457681Y387149I1181J103D01*
G01*
X455319D02*
G03*
X457681Y387149I1181J103D01*
G01*
X445319D02*
G03*
X447681Y387149I1181J103D01*
G01*
X445319D02*
G03*
X447681Y387149I1181J103D01*
G01*
X508075Y382622D02*
Y385378D01*
X504925Y382622D02*
Y385476D01*
X508075Y382622D02*
Y385378D01*
X504925Y382622D02*
Y385476D01*
X498075Y382622D02*
Y385378D01*
X494925Y382622D02*
Y385476D01*
X498075Y382622D02*
Y385378D01*
X494925Y382622D02*
Y385476D01*
X488075Y382622D02*
Y385378D01*
X484925Y382622D02*
Y385476D01*
X488075Y382622D02*
Y385378D01*
X484925Y382622D02*
Y385476D01*
X478075Y382622D02*
Y385378D01*
X474925Y382622D02*
Y385476D01*
X478075Y382622D02*
Y385378D01*
X474925Y382622D02*
Y385476D01*
X468075Y382622D02*
Y385378D01*
X464925Y382622D02*
Y385476D01*
X468075Y382622D02*
Y385378D01*
X464925Y382622D02*
Y385476D01*
X458075Y382622D02*
Y385378D01*
X454925Y382622D02*
Y385476D01*
X458075Y382622D02*
Y385378D01*
X454925Y382622D02*
Y385476D01*
X448075Y382622D02*
Y385378D01*
X444925Y382622D02*
Y385476D01*
X448075Y382622D02*
Y385378D01*
X444925Y382622D02*
Y385476D01*
D46*
X505417Y386461D02*
G03*
X505417Y386461I-295J0D01*
G01*
X507583Y380752D02*
G03*
X505417Y380752I-1083J0D01*
G01*
X505417Y386461D02*
G03*
X505417Y386461I-295J0D01*
G01*
X507583Y380752D02*
G03*
X505417Y380752I-1083J0D01*
G01*
X495417Y386461D02*
G03*
X495417Y386461I-295J0D01*
G01*
X497583Y380752D02*
G03*
X495417Y380752I-1083J0D01*
G01*
X495417Y386461D02*
G03*
X495417Y386461I-295J0D01*
G01*
X497583Y380752D02*
G03*
X495417Y380752I-1083J0D01*
G01*
X485417Y386461D02*
G03*
X485417Y386461I-295J0D01*
G01*
X487583Y380752D02*
G03*
X485417Y380752I-1083J0D01*
G01*
X485417Y386461D02*
G03*
X485417Y386461I-295J0D01*
G01*
X487583Y380752D02*
G03*
X485417Y380752I-1083J0D01*
G01*
X475417Y386461D02*
G03*
X475417Y386461I-295J0D01*
G01*
X477583Y380752D02*
G03*
X475417Y380752I-1083J0D01*
G01*
X475417Y386461D02*
G03*
X475417Y386461I-295J0D01*
G01*
X477583Y380752D02*
G03*
X475417Y380752I-1083J0D01*
G01*
X465417Y386461D02*
G03*
X465417Y386461I-295J0D01*
G01*
X467583Y380752D02*
G03*
X465417Y380752I-1083J0D01*
G01*
X465417Y386461D02*
G03*
X465417Y386461I-295J0D01*
G01*
X467583Y380752D02*
G03*
X465417Y380752I-1083J0D01*
G01*
X455417Y386461D02*
G03*
X455417Y386461I-295J0D01*
G01*
X457583Y380752D02*
G03*
X455417Y380752I-1083J0D01*
G01*
X455417Y386461D02*
G03*
X455417Y386461I-295J0D01*
G01*
X457583Y380752D02*
G03*
X455417Y380752I-1083J0D01*
G01*
X445417Y386461D02*
G03*
X445417Y386461I-295J0D01*
G01*
X447583Y380752D02*
G03*
X445417Y380752I-1083J0D01*
G01*
X445417Y386461D02*
G03*
X445417Y386461I-295J0D01*
G01*
X447583Y380752D02*
G03*
X445417Y380752I-1083J0D01*
G01*
X482917Y401413D02*
Y414587D01*
X489083D01*
Y401413D02*
Y414587D01*
X482917Y401413D02*
X489083D01*
X491413Y425083D02*
X504587D01*
Y418917D02*
Y425083D01*
X491413Y418917D02*
X504587D01*
X491413D02*
Y425083D01*
Y444583D02*
X504587D01*
Y438417D02*
Y444583D01*
X491413Y438417D02*
X504587D01*
X491413D02*
Y444583D01*
X514807Y395689D02*
X527193D01*
Y390311D02*
Y395689D01*
X514807Y390311D02*
X527193D01*
X514807D02*
Y395689D01*
X469307Y438811D02*
X481693D01*
X469307D02*
Y444189D01*
X481693D01*
Y438811D02*
Y444189D01*
X505417Y426913D02*
Y440087D01*
X511583D01*
Y426913D02*
Y440087D01*
X505417Y426913D02*
X511583D01*
X508811Y378307D02*
Y390693D01*
X514189D01*
Y378307D02*
Y390693D01*
X508811Y378307D02*
X514189D01*
X498811D02*
Y390693D01*
X504189D01*
Y378307D02*
Y390693D01*
X498811Y378307D02*
X504189D01*
X488811Y378154D02*
Y390539D01*
X494189D01*
Y378154D02*
Y390539D01*
X488811Y378154D02*
X494189D01*
X478811Y378307D02*
Y390693D01*
X484189D01*
Y378307D02*
Y390693D01*
X478811Y378307D02*
X484189D01*
X468811D02*
Y390693D01*
X474189D01*
Y378307D02*
Y390693D01*
X468811Y378307D02*
X474189D01*
X458811D02*
Y390693D01*
X464189D01*
Y378307D02*
Y390693D01*
X458811Y378307D02*
X464189D01*
X448811D02*
Y390693D01*
X454189D01*
Y378307D02*
Y390693D01*
X448811Y378307D02*
X454189D01*
X448811Y434307D02*
Y446693D01*
X454189D01*
Y434307D02*
Y446693D01*
X448811Y434307D02*
X454189D01*
M02*
