G04 Layer_Color=8421504*
%FSLAX25Y25*%
%MOIN*%
G70*
G01*
G75*
%ADD10R,0.03937X0.04331*%
%ADD11R,0.12402X0.18819*%
%ADD12R,0.04331X0.03937*%
%ADD13R,0.06693X0.03937*%
%ADD14R,0.06299X0.03937*%
%ADD15R,0.09842X0.11811*%
%ADD16R,0.04764X0.07047*%
%ADD17R,0.03150X0.03150*%
%ADD18R,0.05800X0.01400*%
D10*
X486000Y404654D02*
D03*
Y411346D02*
D03*
X508500Y430154D02*
D03*
Y436846D02*
D03*
X511500Y381154D02*
D03*
Y387846D02*
D03*
X501500Y381154D02*
D03*
Y387846D02*
D03*
X491500Y381000D02*
D03*
Y387693D02*
D03*
X481500Y381154D02*
D03*
Y387846D02*
D03*
X471500Y381154D02*
D03*
Y387846D02*
D03*
X461500Y381154D02*
D03*
Y387846D02*
D03*
X451500Y381154D02*
D03*
Y387846D02*
D03*
Y437154D02*
D03*
Y443846D02*
D03*
D11*
X651205Y417000D02*
D03*
X529000D02*
D03*
D12*
X494654Y422000D02*
D03*
X501346D02*
D03*
X494654Y441500D02*
D03*
X501346D02*
D03*
X517654Y393000D02*
D03*
X524346D02*
D03*
X478846Y441500D02*
D03*
X472154D02*
D03*
D13*
X493598Y414980D02*
D03*
Y400020D02*
D03*
X518402Y414980D02*
D03*
Y400020D02*
D03*
D14*
X486500Y426764D02*
D03*
Y437000D02*
D03*
D15*
X461894Y431882D02*
D03*
D16*
X516500Y438657D02*
D03*
Y428343D02*
D03*
D17*
X506500Y381047D02*
D03*
Y386953D02*
D03*
X496500Y381047D02*
D03*
Y386953D02*
D03*
X486500Y381047D02*
D03*
Y386953D02*
D03*
X476500Y381047D02*
D03*
Y386953D02*
D03*
X466500Y381047D02*
D03*
Y386953D02*
D03*
X456500Y381047D02*
D03*
Y386953D02*
D03*
X446500Y381047D02*
D03*
Y386953D02*
D03*
D18*
X452500Y418700D02*
D03*
Y416100D02*
D03*
Y413600D02*
D03*
Y411000D02*
D03*
Y408400D02*
D03*
Y405900D02*
D03*
Y403300D02*
D03*
X475500D02*
D03*
Y405900D02*
D03*
Y408400D02*
D03*
Y411000D02*
D03*
Y413600D02*
D03*
Y416100D02*
D03*
Y418700D02*
D03*
M02*
