M48
;Layer_Color=9474304
;FILE_FORMAT=2:5
INCH,LZ
;TYPE=PLATED
T1F00S00C0.01575
T2F00S00C0.01968
T3F00S00C0.03543
T4F00S00C0.11811
%
T01
X04465Y03825
X04515Y0381
X04565Y03825
X04615Y0381
X04665Y03825
X04655Y03985
X0458Y0403
Y04085
X04625Y04105
X0447Y0412
Y0406
X04425Y03985
X04525Y0422
X04515Y0437
X0479Y04415
X05015
X0507Y0422
X05165Y0428343
X05285Y0417
X0524346Y0393
X05115Y0381
X05065Y03825
X05015Y0381
X04965Y03825
X04915Y0381
X04865Y03825
X04815Y0381
X04765Y03825
X04715Y0381
X04745Y0398
X0484
X047Y0403
Y0407
X04815Y0415
T02
X0438937Y0382693
Y0388598
X0452717Y0451591
X0458622
T03
X0474Y045
X0484
X0494
X0504
X0514
T04
X04375Y04455
X06485
Y03885
M30
